<?xml version="1.0" encoding="UTF-8" standalone="no"?>
<!-- Created with Inkscape (http://www.inkscape.org/) -->

<svg
   xmlns:dc="http://purl.org/dc/elements/1.1/"
   xmlns:cc="http://creativecommons.org/ns#"
   xmlns:rdf="http://www.w3.org/1999/02/22-rdf-syntax-ns#"
   xmlns:svg="http://www.w3.org/2000/svg"
   xmlns="http://www.w3.org/2000/svg"
   xmlns:sodipodi="http://sodipodi.sourceforge.net/DTD/sodipodi-0.dtd"
   xmlns:inkscape="http://www.inkscape.org/namespaces/inkscape"
   width="48"
   height="37"
   id="svg4460"
   version="1.1"
   inkscape:version="0.48.4 r9939"
   sodipodi:docname="New document 6">
  <defs
     id="defs4462" />
  <sodipodi:namedview
     id="base"
     pagecolor="#ffffff"
     bordercolor="#666666"
     borderopacity="1.0"
     inkscape:pageopacity="0.0"
     inkscape:pageshadow="2"
     inkscape:zoom="4.9497475"
     inkscape:cx="15.532836"
     inkscape:cy="56.324881"
     inkscape:current-layer="layer1"
     showgrid="true"
     inkscape:grid-bbox="true"
     inkscape:document-units="px"
     inkscape:window-width="796"
     inkscape:window-height="881"
     inkscape:window-x="0"
     inkscape:window-y="15"
     inkscape:window-maximized="0" />
  <metadata
     id="metadata4465">
    <rdf:RDF>
      <cc:Work
         rdf:about="">
        <dc:format>image/svg+xml</dc:format>
        <dc:type
           rdf:resource="http://purl.org/dc/dcmitype/StillImage" />
        <dc:title></dc:title>
      </cc:Work>
    </rdf:RDF>
  </metadata>
  <g
     id="layer1"
     inkscape:label="Layer 1"
     inkscape:groupmode="layer"
     transform="translate(0,-11)">
    <path
       sodipodi:type="arc"
       style="fill:#000000;fill-opacity:1"
       id="path4317"
       sodipodi:cx="133.79887"
       sodipodi:cy="112.15504"
       sodipodi:rx="39.247669"
       sodipodi:ry="39.247669"
       d="m 173.04654,112.15504 c 0,21.67589 -17.57178,39.24767 -39.24767,39.24767 -21.67589,0 -39.247665,-17.57178 -39.247665,-39.24767 0,-21.675892 17.571775,-39.247672 39.247665,-39.247672 21.67589,0 39.24767,17.57178 39.24767,39.247672 z"
       transform="matrix(0.44817583,0,0,0.46255132,-41.986613,-22.195201)" />
    <g
       id="g4169"
       transform="matrix(0.61187002,0,0,0.61187002,-79.982698,-17.990461)">
      <path
         d="m 200.878,101.671 0.427,0.251 1.034,0.596 c 4.132,-7.168 6.53,-15.461 6.53,-24.33 0,-8.934 -2.441,-17.289 -6.633,-24.497 l -0.931,0.538 -0.532,0.309 c 4.05,6.961 6.405,15.021 6.405,23.65 0,8.56 -2.316,16.566 -6.3,23.483 z"
         id="path4171"
         inkscape:connector-curvature="0"
         style="fill:#00928f" />
    </g>
    <g
       id="g4173"
       transform="matrix(0.61187002,0,0,0.61187002,-79.982698,-17.990461)">
      <path
         d="m 204.04,78.188 c 0,-8.055 -2.201,-15.588 -5.983,-22.085 l -1.457,0.843 c 3.635,6.25 5.753,13.492 5.753,21.242 0,7.682 -2.075,14.861 -5.651,21.075 l 1.461,0.842 c 3.717,-6.457 5.877,-13.928 5.877,-21.917 z"
         id="path4175"
         inkscape:connector-curvature="0"
         style="fill:#00928f" />
    </g>
    <g
       id="g4177"
       transform="matrix(0.61187002,0,0,0.61187002,-79.982698,-17.990461)">
      <path
         d="m 199.211,78.188 c 0,-7.18 -1.962,-13.886 -5.331,-19.673 l -1.385,0.798 c 3.234,5.556 5.119,11.987 5.119,18.875 0,6.818 -1.841,13.192 -5.012,18.708 l 1.379,0.797 c 3.311,-5.746 5.23,-12.395 5.23,-19.505 z"
         id="path4179"
         inkscape:connector-curvature="0"
         style="fill:#00928f" />
    </g>
    <g
       id="g4181"
       transform="matrix(0.61187002,0,0,0.61187002,-79.982698,-17.990461)">
      <path
         d="m 194.477,78.188 c 0,-6.312 -1.73,-12.218 -4.695,-17.306 l -1.461,0.847 c 2.821,4.842 4.465,10.455 4.465,16.459 0,5.939 -1.603,11.491 -4.365,16.291 l 1.465,0.847 c 2.906,-5.052 4.591,-10.891 4.591,-17.138 z"
         id="path4183"
         inkscape:connector-curvature="0"
         style="fill:#00928f" />
    </g>
    <g
       id="g4185"
       transform="matrix(0.61187002,0,0,0.61187002,-79.982698,-17.990461)">
      <path
         d="m 189.648,78.188 c 0,-5.433 -1.488,-10.517 -4.046,-14.893 l -1.461,0.846 c 2.413,4.131 3.814,8.923 3.814,14.047 0,5.056 -1.36,9.79 -3.711,13.883 l 1.465,0.843 c 2.49,-4.341 3.939,-9.359 3.939,-14.726 z"
         id="path4187"
         inkscape:connector-curvature="0"
         style="fill:#00928f" />
    </g>
    <g
       id="g4189"
       transform="matrix(0.61187002,0,0,0.61187002,-79.982698,-17.990461)">
      <path
         d="m 181.423,90.439 c 2.069,-3.613 3.271,-7.788 3.271,-12.252 0,-4.532 -1.243,-8.766 -3.376,-12.415 l -1.356,0.781 c 2.001,3.419 3.167,7.389 3.167,11.634 0,4.18 -1.124,8.088 -3.062,11.467 l 1.356,0.785 z"
         id="path4191"
         inkscape:connector-curvature="0"
         style="fill:#00928f" />
    </g>
    <g
       id="g4193"
       transform="matrix(0.61187002,0,0,0.61187002,-79.982698,-17.990461)">
      <path
         d="m 177.35,88.088 c 1.672,-2.922 2.64,-6.296 2.64,-9.9 0,-3.674 -1.009,-7.105 -2.743,-10.068 l -1.496,0.863 c 1.586,2.704 2.511,5.844 2.511,9.205 0,3.292 -0.883,6.37 -2.408,9.037 l 1.496,0.863 z"
         id="path4195"
         inkscape:connector-curvature="0"
         style="fill:#00928f" />
    </g>
    <g
       id="g4197"
       transform="matrix(0.61187002,0,0,0.61187002,-79.982698,-17.990461)">
      <path
         d="m 173.072,70.531 -1.502,0.867 c 1.179,2.002 1.903,4.303 1.903,6.789 0,2.421 -0.69,4.656 -1.809,6.617 l 1.508,0.875 c 1.26,-2.215 1.989,-4.763 1.989,-7.492 0.001,-2.793 -0.768,-5.404 -2.089,-7.656 z"
         id="path4199"
         inkscape:connector-curvature="0"
         style="fill:#00928f" />
    </g>
    <path
       d="m 17.923237,36.169822 c 2.3196,0 4.344278,-1.250051 5.443196,-3.113194 0.555578,-0.940445 0.874974,-2.033857 0.874974,-3.2062 0,-1.211502 -0.343259,-2.34591 -0.936773,-3.308993 -1.111156,-1.805016 -3.10524,-3.007341 -5.380784,-3.007341 -3.488883,0 -6.316947,2.829287 -6.316947,6.316334 0,3.490719 2.827452,6.319394 6.316334,6.319394 z m 0,-8.383843 c 1.106261,0 1.995308,0.892107 1.995308,1.994085 0,1.101365 -0.889047,1.996531 -1.995308,1.996531 -1.103813,0 -1.994084,-0.895166 -1.994084,-1.996531 0,-1.101978 0.890271,-1.994085 1.994084,-1.994085 z"
       id="path4201"
       inkscape:connector-curvature="0"
       style="fill:#e8573f" />
    <circle
       cx="160.011"
       cy="78.074997"
       r="1.568"
       id="circle4203"
       sodipodi:cx="160.011"
       sodipodi:cy="78.074997"
       sodipodi:rx="1.568"
       sodipodi:ry="1.568"
       transform="matrix(0.61187002,0,0,0.61187002,-79.982698,-17.990461)"
       style="fill:#ffffff"
       d="m 161.579,78.074997 c 0,0.865982 -0.70202,1.568 -1.568,1.568 -0.86598,0 -1.568,-0.702018 -1.568,-1.568 0,-0.865983 0.70202,-1.568 1.568,-1.568 0.86598,0 1.568,0.702017 1.568,1.568 z" />
    <path
       d="m 17.903658,12.157596 c -3.219049,0 -6.146846,1.176626 -8.4040353,3.115642 2.4646123,-1.445848 5.3275523,-2.285334 8.4003633,-2.285334 3.091779,0 5.973687,0.849888 8.452373,2.305526 -2.266978,-1.951253 -5.212521,-3.135834 -8.448701,-3.135834 z"
       id="path4205"
       inkscape:connector-curvature="0"
       style="fill:#676767" />
    <path
       d="m 17.905493,13.862878 c -2.9021,0 -5.534364,1.094024 -7.536403,2.878849 2.210687,-1.291658 4.778093,-2.046706 7.531508,-2.046706 2.774831,0 5.358758,0.761778 7.581682,2.06445 -2.011829,-1.795839 -4.658167,-2.896593 -7.576787,-2.896593 z"
       id="path4207"
       inkscape:connector-curvature="0"
       style="fill:#676767" />
    <path
       d="m 11.302192,18.172891 c 1.943911,-1.119111 4.191921,-1.770752 6.600854,-1.770752 2.426676,0 4.693043,0.658984 6.647355,1.787884 -1.738934,-1.621456 -4.067099,-2.619416 -6.64246,-2.619416 -2.559452,0 -4.872933,0.993066 -6.605749,2.602284 z"
       id="path4209"
       inkscape:connector-curvature="0"
       style="fill:#676767" />
    <path
       d="m 17.911,17.280172 c -2.236996,0 -4.254944,0.898225 -5.723432,2.351417 1.68509,-0.963083 3.632672,-1.521109 5.718537,-1.521109 2.103609,0 4.066488,0.56598 5.759533,1.538853 C 22.192866,18.182681 20.160234,17.280172 17.911,17.280172 z"
       id="path4211"
       inkscape:connector-curvature="0"
       style="fill:#676767" />
    <path
       d="m 17.912224,18.987902 c -1.931062,0 -3.652252,0.822353 -4.872933,2.125024 1.434223,-0.819906 3.094227,-1.295328 4.869261,-1.295328 1.786661,0 3.456454,0.47787 4.899856,1.305118 -1.224964,-1.308178 -2.954109,-2.134814 -4.896184,-2.134814 z"
       id="path4213"
       inkscape:connector-curvature="0"
       style="fill:#676767" />
    <path
       d="m 13.88979,22.593038 c 1.18458,-0.676116 2.554558,-1.068323 4.020598,-1.068323 1.47583,0 2.854374,0.395266 4.045684,1.078725 -0.966754,-1.159492 -2.407708,-1.910868 -4.042013,-1.910868 -1.62635,0 -3.058126,0.746481 -4.024269,1.900466 z"
       id="path4215"
       inkscape:connector-curvature="0"
       style="fill:#676767" />
    <path
       d="m 17.903658,47.387236 c 3.23618,0 6.182334,-1.186417 8.448701,-3.135223 -2.479298,1.453192 -5.361205,2.303079 -8.452373,2.303079 -3.072811,0 -5.935751,-0.839485 -8.4003633,-2.285334 2.2565763,1.938404 5.1849863,3.117478 8.4040353,3.117478 z"
       id="path4217"
       inkscape:connector-curvature="0"
       style="fill:#333333" />
    <path
       d="m 17.905493,45.680118 c 2.91862,0 5.564958,-1.098919 7.576175,-2.896592 -2.222924,1.305118 -4.806239,2.064449 -7.581682,2.064449 -2.753415,0 -5.320821,-0.751988 -7.531508,-2.044258 2.002651,1.782377 4.635528,2.876401 7.537015,2.876401 z"
       id="path4219"
       inkscape:connector-curvature="0"
       style="fill:#333333" />
    <path
       d="m 17.907941,43.972389 c 2.574749,0 4.903526,-0.995513 6.64246,-2.620028 -1.953701,1.13196 -4.220679,1.787885 -6.647355,1.787885 -2.409545,0 -4.656943,-0.648583 -6.600854,-1.77014 1.732816,1.611053 4.046297,2.602283 6.605749,2.602283 z"
       id="path4221"
       inkscape:connector-curvature="0"
       style="fill:#333333" />
    <path
       d="m 17.911,42.265271 c 2.249234,0 4.282478,-0.904955 5.754638,-2.368548 -1.693657,0.972873 -3.656535,1.538853 -5.759533,1.538853 -2.085865,0 -4.033447,-0.560473 -5.718537,-1.523557 1.468488,1.455027 3.486436,2.353252 5.723432,2.353252 z"
       id="path4223"
       inkscape:connector-curvature="0"
       style="fill:#333333" />
    <path
       d="m 17.912224,40.558155 c 1.942687,0 3.67122,-0.829697 4.895572,-2.134816 -1.443402,0.824801 -3.113195,1.305119 -4.899855,1.305119 -1.775036,0 -3.435039,-0.475424 -4.869262,-1.294717 1.220681,1.299 2.941871,2.124414 4.873545,2.124414 z"
       id="path4225"
       inkscape:connector-curvature="0"
       style="fill:#333333" />
    <path
       d="m 21.956685,36.94139 c -1.191923,0.681011 -2.569855,1.07628 -4.045685,1.07628 -1.466041,0 -2.83663,-0.389762 -4.020598,-1.068938 0.965531,1.154599 2.397307,1.903528 4.024269,1.903528 1.634305,0 3.075259,-0.751377 4.042014,-1.91087 z"
       id="path4227"
       inkscape:connector-curvature="0"
       style="fill:#676767" />
    <g
       transform="matrix(0.61187002,0,0,0.61187002,-79.982698,-17.990461)"
       id="g4255">
      <path
         style="fill:#00928f"
         inkscape:connector-curvature="0"
         id="path4257"
         d="m 200.878,101.671 0.427,0.251 1.034,0.596 c 4.132,-7.168 6.53,-15.461 6.53,-24.33 0,-8.934 -2.441,-17.289 -6.633,-24.497 l -0.931,0.538 -0.532,0.309 c 4.05,6.961 6.405,15.021 6.405,23.65 0,8.56 -2.316,16.566 -6.3,23.483 z" />
    </g>
    <g
       transform="matrix(0.61187002,0,0,0.61187002,-79.982698,-17.990461)"
       id="g4259">
      <path
         style="fill:#00928f"
         inkscape:connector-curvature="0"
         id="path4261"
         d="m 204.04,78.188 c 0,-8.055 -2.201,-15.588 -5.983,-22.085 l -1.457,0.843 c 3.635,6.25 5.753,13.492 5.753,21.242 0,7.682 -2.075,14.861 -5.651,21.075 l 1.461,0.842 c 3.717,-6.457 5.877,-13.928 5.877,-21.917 z" />
    </g>
    <g
       transform="matrix(0.61187002,0,0,0.61187002,-79.982698,-17.990461)"
       id="g4263">
      <path
         style="fill:#00928f"
         inkscape:connector-curvature="0"
         id="path4265"
         d="m 199.211,78.188 c 0,-7.18 -1.962,-13.886 -5.331,-19.673 l -1.385,0.798 c 3.234,5.556 5.119,11.987 5.119,18.875 0,6.818 -1.841,13.192 -5.012,18.708 l 1.379,0.797 c 3.311,-5.746 5.23,-12.395 5.23,-19.505 z" />
    </g>
    <g
       transform="matrix(0.61187002,0,0,0.61187002,-79.982698,-17.990461)"
       id="g4267">
      <path
         style="fill:#00928f"
         inkscape:connector-curvature="0"
         id="path4269"
         d="m 194.477,78.188 c 0,-6.312 -1.73,-12.218 -4.695,-17.306 l -1.461,0.847 c 2.821,4.842 4.465,10.455 4.465,16.459 0,5.939 -1.603,11.491 -4.365,16.291 l 1.465,0.847 c 2.906,-5.052 4.591,-10.891 4.591,-17.138 z" />
    </g>
    <g
       transform="matrix(0.61187002,0,0,0.61187002,-79.982698,-17.990461)"
       id="g4271">
      <path
         style="fill:#00928f"
         inkscape:connector-curvature="0"
         id="path4273"
         d="m 189.648,78.188 c 0,-5.433 -1.488,-10.517 -4.046,-14.893 l -1.461,0.846 c 2.413,4.131 3.814,8.923 3.814,14.047 0,5.056 -1.36,9.79 -3.711,13.883 l 1.465,0.843 c 2.49,-4.341 3.939,-9.359 3.939,-14.726 z" />
    </g>
    <g
       transform="matrix(0.61187002,0,0,0.61187002,-79.982698,-17.990461)"
       id="g4275">
      <path
         style="fill:#00928f"
         inkscape:connector-curvature="0"
         id="path4277"
         d="m 181.423,90.439 c 2.069,-3.613 3.271,-7.788 3.271,-12.252 0,-4.532 -1.243,-8.766 -3.376,-12.415 l -1.356,0.781 c 2.001,3.419 3.167,7.389 3.167,11.634 0,4.18 -1.124,8.088 -3.062,11.467 l 1.356,0.785 z" />
    </g>
    <g
       transform="matrix(0.61187002,0,0,0.61187002,-79.982698,-17.990461)"
       id="g4279">
      <path
         style="fill:#00928f"
         inkscape:connector-curvature="0"
         id="path4281"
         d="m 177.35,88.088 c 1.672,-2.922 2.64,-6.296 2.64,-9.9 0,-3.674 -1.009,-7.105 -2.743,-10.068 l -1.496,0.863 c 1.586,2.704 2.511,5.844 2.511,9.205 0,3.292 -0.883,6.37 -2.408,9.037 l 1.496,0.863 z" />
    </g>
    <g
       transform="matrix(0.61187002,0,0,0.61187002,-79.982698,-17.990461)"
       id="g4283">
      <path
         style="fill:#00928f"
         inkscape:connector-curvature="0"
         id="path4285"
         d="m 173.072,70.531 -1.502,0.867 c 1.179,2.002 1.903,4.303 1.903,6.789 0,2.421 -0.69,4.656 -1.809,6.617 l 1.508,0.875 c 1.26,-2.215 1.989,-4.763 1.989,-7.492 0.001,-2.793 -0.768,-5.404 -2.089,-7.656 z" />
    </g>
    <path
       style="fill:#e8573f"
       inkscape:connector-curvature="0"
       id="path4287"
       d="m 17.923237,36.169822 c 2.3196,0 4.344278,-1.250051 5.443196,-3.113194 0.555578,-0.940445 0.874974,-2.033857 0.874974,-3.2062 0,-1.211502 -0.343259,-2.34591 -0.936773,-3.308993 -1.111156,-1.805016 -3.10524,-3.007341 -5.380784,-3.007341 -3.488883,0 -6.316947,2.829287 -6.316947,6.316334 0,3.490719 2.827452,6.319394 6.316334,6.319394 z m 0,-8.383843 c 1.106261,0 1.995308,0.892107 1.995308,1.994085 0,1.101365 -0.889047,1.996531 -1.995308,1.996531 -1.103813,0 -1.994084,-0.895166 -1.994084,-1.996531 0,-1.101978 0.890271,-1.994085 1.994084,-1.994085 z" />
    <circle
       style="fill:#ffffff"
       transform="matrix(0.61187002,0,0,0.61187002,-79.982698,-17.990461)"
       sodipodi:ry="1.568"
       sodipodi:rx="1.568"
       sodipodi:cy="78.074997"
       sodipodi:cx="160.011"
       id="circle4289"
       r="1.568"
       cy="78.074997"
       cx="160.011"
       d="m 161.579,78.074997 c 0,0.865982 -0.70202,1.568 -1.568,1.568 -0.86598,0 -1.568,-0.702018 -1.568,-1.568 0,-0.865983 0.70202,-1.568 1.568,-1.568 0.86598,0 1.568,0.702017 1.568,1.568 z" />
    <path
       style="fill:#333333"
       inkscape:connector-curvature="0"
       id="path4291"
       d="m 17.903658,12.157596 c -3.219049,0 -6.146846,1.176626 -8.4040353,3.115642 2.4646123,-1.445848 5.3275523,-2.285334 8.4003633,-2.285334 3.091779,0 5.973687,0.849888 8.452373,2.305526 -2.266978,-1.951253 -5.212521,-3.135834 -8.448701,-3.135834 z" />
    <path
       style="fill:#333333"
       inkscape:connector-curvature="0"
       id="path4293"
       d="m 17.905493,13.862878 c -2.9021,0 -5.534364,1.094024 -7.536403,2.878849 2.210687,-1.291658 4.778093,-2.046706 7.531508,-2.046706 2.774831,0 5.358758,0.761778 7.581682,2.06445 -2.011829,-1.795839 -4.658167,-2.896593 -7.576787,-2.896593 z" />
    <path
       style="fill:#333333"
       inkscape:connector-curvature="0"
       id="path4295"
       d="m 11.302192,18.172891 c 1.943911,-1.119111 4.191921,-1.770752 6.600854,-1.770752 2.426676,0 4.693043,0.658984 6.647355,1.787884 -1.738934,-1.621456 -4.067099,-2.619416 -6.64246,-2.619416 -2.559452,0 -4.872933,0.993066 -6.605749,2.602284 z" />
    <path
       style="fill:#333333"
       inkscape:connector-curvature="0"
       id="path4297"
       d="m 17.911,17.280172 c -2.236996,0 -4.254944,0.898225 -5.723432,2.351417 1.68509,-0.963083 3.632672,-1.521109 5.718537,-1.521109 2.103609,0 4.066488,0.56598 5.759533,1.538853 C 22.192866,18.182681 20.160234,17.280172 17.911,17.280172 z" />
    <path
       style="fill:#333333"
       inkscape:connector-curvature="0"
       id="path4299"
       d="m 17.912224,18.987902 c -1.931062,0 -3.652252,0.822353 -4.872933,2.125024 1.434223,-0.819906 3.094227,-1.295328 4.869261,-1.295328 1.786661,0 3.456454,0.47787 4.899856,1.305118 -1.224964,-1.308178 -2.954109,-2.134814 -4.896184,-2.134814 z" />
    <path
       style="fill:#333333"
       inkscape:connector-curvature="0"
       id="path4301"
       d="m 13.88979,22.593038 c 1.18458,-0.676116 2.554558,-1.068323 4.020598,-1.068323 1.47583,0 2.854374,0.395266 4.045684,1.078725 -0.966754,-1.159492 -2.407708,-1.910868 -4.042013,-1.910868 -1.62635,0 -3.058126,0.746481 -4.024269,1.900466 z" />
    <path
       style="fill:#333333"
       inkscape:connector-curvature="0"
       id="path4303"
       d="m 17.903658,47.387236 c 3.23618,0 6.182334,-1.186417 8.448701,-3.135223 -2.479298,1.453192 -5.361205,2.303079 -8.452373,2.303079 -3.072811,0 -5.935751,-0.839485 -8.4003633,-2.285334 2.2565763,1.938404 5.1849863,3.117478 8.4040353,3.117478 z" />
    <path
       style="fill:#333333"
       inkscape:connector-curvature="0"
       id="path4305"
       d="m 17.905493,45.680118 c 2.91862,0 5.564958,-1.098919 7.576175,-2.896592 -2.222924,1.305118 -4.806239,2.064449 -7.581682,2.064449 -2.753415,0 -5.320821,-0.751988 -7.531508,-2.044258 2.002651,1.782377 4.635528,2.876401 7.537015,2.876401 z" />
    <path
       style="fill:#333333"
       inkscape:connector-curvature="0"
       id="path4307"
       d="m 17.907941,43.972389 c 2.574749,0 4.903526,-0.995513 6.64246,-2.620028 -1.953701,1.13196 -4.220679,1.787885 -6.647355,1.787885 -2.409545,0 -4.656943,-0.648583 -6.600854,-1.77014 1.732816,1.611053 4.046297,2.602283 6.605749,2.602283 z" />
    <path
       style="fill:#333333"
       inkscape:connector-curvature="0"
       id="path4309"
       d="m 17.911,42.265271 c 2.249234,0 4.282478,-0.904955 5.754638,-2.368548 -1.693657,0.972873 -3.656535,1.538853 -5.759533,1.538853 -2.085865,0 -4.033447,-0.560473 -5.718537,-1.523557 1.468488,1.455027 3.486436,2.353252 5.723432,2.353252 z" />
    <path
       style="fill:#333333"
       inkscape:connector-curvature="0"
       id="path4311"
       d="m 17.912224,40.558155 c 1.942687,0 3.67122,-0.829697 4.895572,-2.134816 -1.443402,0.824801 -3.113195,1.305119 -4.899855,1.305119 -1.775036,0 -3.435039,-0.475424 -4.869262,-1.294717 1.220681,1.299 2.941871,2.124414 4.873545,2.124414 z" />
    <path
       style="fill:#333333"
       inkscape:connector-curvature="0"
       id="path4313"
       d="m 21.956685,36.94139 c -1.191923,0.681011 -2.569855,1.07628 -4.045685,1.07628 -1.466041,0 -2.83663,-0.389762 -4.020598,-1.068938 0.965531,1.154599 2.397307,1.903528 4.024269,1.903528 1.634305,0 3.075259,-0.751377 4.042014,-1.91087 z" />
  </g>
</svg>
